<?xml version="1.0" encoding="utf-8"?>
<!-- Generator: Adobe Illustrator 23.0.6, SVG Export Plug-In . SVG Version: 6.00 Build 0)  -->
<svg version="1.1" id="Capa_1" xmlns="http://www.w3.org/2000/svg" xmlns:xlink="http://www.w3.org/1999/xlink" x="0px" y="0px"
	 viewBox="0 0 60.1 60.1" style="enable-background:new 0 0 60.1 60.1;" xml:space="preserve">
<style type="text/css">
	.st0{fill:#FFFFFF;}
</style>
<path class="st0" d="M60,11.2C60.1,11.2,60.1,11.1,60,11.2c0-0.1,0-0.2,0-0.3c0,0,0,0,0-0.1c0-0.1-0.1-0.2-0.1-0.3c0,0,0,0,0,0
	c0,0,0,0,0,0c0,0,0,0,0,0c0,0,0,0,0,0c-0.1-0.1-0.1-0.2-0.2-0.2c0,0,0,0-0.1,0c-0.1,0-0.2-0.1-0.2-0.1c0,0-0.1,0-0.1,0
	c-0.1,0-0.1,0-0.2,0c0,0-0.1,0-0.1,0c0,0-0.1,0-0.1,0l-58,12c-0.4,0.1-0.7,0.4-0.8,0.8s0.2,0.8,0.5,1l16.6,8.8l2.9,16.2c0,0,0,0,0,0
	c0,0.1,0,0.2,0,0.2c0,0,0,0.1,0,0.1c0,0.1,0.1,0.2,0.1,0.3c0,0,0,0,0,0.1c0,0,0,0,0,0c0,0,0,0,0,0.1c0,0.1,0.1,0.1,0.2,0.2
	c0,0,0,0,0,0c0,0,0,0,0,0c0.1,0,0.1,0.1,0.2,0.1c0,0,0.1,0,0.1,0c0.1,0,0.2,0,0.3,0c0,0,0,0,0,0l0,0l0,0c0,0,0,0,0,0c0,0,0,0,0.1,0
	c0.3,0,0.5-0.1,0.7-0.3l11.1-7.4l11.6,7.5c0.2,0.1,0.4,0.2,0.5,0.2c0.1,0,0.2,0,0.3-0.1c0.3-0.1,0.5-0.3,0.6-0.6l14-38
	C60,11.3,60,11.3,60,11.2C60,11.3,60,11.2,60,11.2C60,11.2,60,11.2,60,11.2z M48.5,17.6l-24,17.6c0,0-0.1,0.1-0.1,0.1c0,0,0,0,0,0
	c0,0,0,0-0.1,0.1c0,0,0,0,0,0.1c0,0.1-0.1,0.1-0.1,0.2c0,0,0,0,0,0c0,0,0,0,0,0l-2.8,8.9l-2.2-12.1L48.5,17.6z M22.9,46.6l2.7-9
	l4.2,2.8l1.2,0.8L27,43.9L22.9,46.6z M52,13.5l-34,17.4L3.9,23.4L52,13.5z M44.6,47.5l-15.4-10L26.8,36L57,13.8L44.6,47.5z"/>
</svg>
